<?xml version="1.0" encoding="utf-8"?>
<!-- Generator: Adobe Illustrator 18.0.0, SVG Export Plug-In . SVG Version: 6.00 Build 0)  -->
<!DOCTYPE svg PUBLIC "-//W3C//DTD SVG 1.1//EN" "http://www.w3.org/Graphics/SVG/1.1/DTD/svg11.dtd">
<svg version="1.1" id="Layer_1" xmlns:sketch="http://www.bohemiancoding.com/sketch/ns"
	 xmlns="http://www.w3.org/2000/svg" xmlns:xlink="http://www.w3.org/1999/xlink" x="0px" y="0px" viewBox="35.5 12 118.1 18.4"
	 enable-background="new 35.5 12 118.1 18.4" xml:space="preserve">
<title>Logo</title>
<desc>Created with Sketch.</desc>
<g id="Welcome" sketch:type="MSPage">
	<g id="Collection-View" transform="translate(-92.000000, -966.000000)" sketch:type="MSArtboardGroup">
		<g id="Logo" transform="translate(92.000000, 966.000000)" sketch:type="MSLayerGroup">
			<g id="Logo-Type" transform="translate(35.426031, 12.023591)" sketch:type="MSShapeGroup">
				<path id="Fill-1_1_" fill="#FFFFFF" d="M6.7,6.4C8,6.4,9.2,7,10,8.2l1.3-1.2c-1-1.3-2.4-2.3-4.8-2.3c-3.9,0-6.5,3-6.5,6.8
					c0,3.9,2.6,6.9,6.5,6.9c2.4,0,3.8-1,4.8-2.3L10,14.8c-0.9,1.2-2,1.7-3.3,1.7c-2.8,0-4.5-2.2-4.5-5.1C2.2,8.6,3.9,6.4,6.7,6.4"/>
				<path id="Fill-2_1_" fill="#FFFFFF" d="M20.4,4.6c-4,0-6.5,3.1-6.5,6.8c0,3.8,2.5,6.9,6.5,6.9s6.5-3.1,6.5-6.9
					C26.9,7.7,24.4,4.6,20.4,4.6L20.4,4.6z M20.4,16.5c-2.8,0-4.3-2.4-4.3-5.1c0-2.7,1.6-5,4.3-5s4.3,2.4,4.3,5
					C24.8,14.2,23.2,16.5,20.4,16.5L20.4,16.5z"/>
				<path id="Fill-3_1_" fill="#FFFFFF" d="M40.2,6.9c-1.1-1.4-2.6-2.3-4.4-2.3c-3.4,0-5.8,2.7-5.8,6.9c0,4.2,2.4,6.8,5.8,6.8
					c1.8,0,3.4-0.9,4.4-2.3V18h2V0h-2V6.9L40.2,6.9z M40.2,14.5c-0.7,1.1-2.3,2.1-3.9,2.1c-2.6,0-4.2-2.1-4.2-5
					c0-2.9,1.6-5.1,4.2-5.1c1.6,0,3.2,1,3.9,2.1V14.5L40.2,14.5z"/>
				<path id="Fill-4_1_" fill="#FFFFFF" d="M52.5,4.6c-3.7,0-6.4,3.1-6.4,6.8c0,4.1,2.8,6.9,6.6,6.9c2.1,0,3.9-0.7,5.2-2l-1-1.3
					c-1,1.1-2.5,1.7-4,1.7c-2.8,0-4.5-2.1-4.7-4.5h10.6v-0.5C58.7,7.7,56.4,4.6,52.5,4.6L52.5,4.6z M48.2,10.7
					c0.1-2,1.5-4.4,4.3-4.4c3,0,4.3,2.4,4.3,4.4H48.2L48.2,10.7z"/>
				<path id="Fill-5_1_" fill="#FFFFFF" d="M73.1,16.1l-1.4-1.2c-0.9,1.2-2,1.7-3.3,1.7c-2.8,0-4.5-2.2-4.5-5.1c0-2.9,1.7-5,4.5-5
					c1.4,0,2.5,0.5,3.3,1.7l1.4-1.2c-1-1.3-2.4-2.3-4.8-2.3c-3.9,0-6.5,3-6.5,6.8c0,3.9,2.6,6.9,6.5,6.9
					C70.7,18.3,72.1,17.4,73.1,16.1"/>
				<path id="Fill-6_1_" fill="#FFFFFF" d="M88.6,11.5c0-3.8-2.5-6.8-6.5-6.8s-6.5,3.1-6.5,6.8c0,3.8,2.5,6.9,6.5,6.9
					S88.6,15.3,88.6,11.5L88.6,11.5z M82.2,16.5c-2.8,0-4.3-2.4-4.3-5.1c0-2.7,1.6-5,4.3-5s4.3,2.4,4.3,5
					C86.5,14.2,84.9,16.5,82.2,16.5L82.2,16.5z"/>
				<path id="Fill-7_1_" fill="#FFFFFF" d="M103.6,5h-2.2L97,15.7L92.7,5h-2.2L95.9,18h2.2L103.6,5"/>
				<path id="Fill-8_1_" fill="#FFFFFF" d="M111.9,4.6c-3.7,0-6.4,3.1-6.4,6.8c0,4.1,2.8,6.9,6.6,6.9c2.1,0,3.9-0.7,5.2-2l-1-1.3
					c-1,1.1-2.5,1.7-4,1.7c-2.8,0-4.5-2.1-4.7-4.5h10.6v-0.5C118.2,7.7,115.8,4.6,111.9,4.6L111.9,4.6z M107.6,10.7
					c0.1-2,1.5-4.4,4.3-4.4c3,0,4.3,2.4,4.3,4.4H107.6L107.6,10.7z"/>
			</g>
		</g>
	</g>
</g>
</svg>
